<svg width="45" height="41" viewBox="0 0 45 41" fill="none" xmlns="http://www.w3.org/2000/svg">
<g filter="url(#filter0_d_1_104)">
<path d="M16.8079 0.866577H8.26931C7.08325 0.866577 6.07531 1.28169 5.24501 2.11167C4.41511 2.94181 4 3.94975 4 5.13588V13.6742C4 14.8602 4.41487 15.868 5.24501 16.698C6.07523 17.5279 7.08348 17.9432 8.26931 17.9432H13.2501C13.8428 17.9432 14.3469 18.1508 14.762 18.5658C15.1772 18.9805 15.3846 19.4848 15.3846 20.078V20.7891C15.3846 22.3605 14.8286 23.7017 13.717 24.8136C12.6052 25.9251 11.2638 26.481 9.6922 26.481H8.26931C7.88364 26.481 7.55023 26.6222 7.26845 26.9037C6.98691 27.1851 6.84602 27.5188 6.84602 27.9042V30.7507C6.84602 31.1355 6.98691 31.4698 7.26845 31.7513C7.55046 32.0327 7.88356 32.174 8.26931 32.174H9.69228C11.2341 32.174 12.7054 31.8734 14.1063 31.2732C15.5071 30.673 16.7189 29.8611 17.7418 28.8383C18.7645 27.8153 19.5761 26.6038 20.1764 25.2028C20.7767 23.802 21.0769 22.3308 21.0769 20.7892V5.13557C21.0769 3.94944 20.6618 2.94157 19.8318 2.11159C19.0018 1.28161 17.9937 0.866577 16.8079 0.866577Z" fill="#F6762C"/>
<path d="M39.7546 2.11155C38.9247 1.28156 37.9167 0.866455 36.7306 0.866455H28.1923C27.0062 0.866455 25.9983 1.28156 25.1683 2.11155C24.3384 2.94176 23.9235 3.94963 23.9235 5.13576V13.6741C23.9235 14.8601 24.3384 15.8679 25.1683 16.6979C25.9983 17.5278 27.0063 17.9431 28.1923 17.9431H33.1731C33.7658 17.9431 34.2703 18.1507 34.6854 18.5656C35.1 18.9806 35.3079 19.4846 35.3079 20.0779V20.789C35.3079 22.3604 34.7519 23.7015 33.64 24.8135C32.5283 25.925 31.1872 26.4809 29.6155 26.4809H28.1923C27.8069 26.4809 27.4732 26.6221 27.1918 26.9036C26.9101 27.185 26.769 27.5187 26.769 27.9041V30.7506C26.769 31.1354 26.9101 31.4697 27.1918 31.7512C27.4731 32.0326 27.8069 32.1739 28.1923 32.1739H29.6155C31.1571 32.1739 32.6283 31.8732 34.0294 31.2731C35.43 30.6729 36.6416 29.861 37.6646 28.8381C38.6874 27.8152 39.4996 26.6033 40.0995 25.2027C40.6997 23.8022 41.0001 22.3307 41.0001 20.7891V5.13545C40.9998 3.94931 40.5851 2.94145 39.7546 2.11155Z" fill="#F6762C"/>
</g>
<defs>
<filter id="filter0_d_1_104" x="0" y="0.866455" width="45" height="39.3075" filterUnits="userSpaceOnUse" color-interpolation-filters="sRGB">
<feFlood flood-opacity="0" result="BackgroundImageFix"/>
<feColorMatrix in="SourceAlpha" type="matrix" values="0 0 0 0 0 0 0 0 0 0 0 0 0 0 0 0 0 0 127 0" result="hardAlpha"/>
<feOffset dy="4"/>
<feGaussianBlur stdDeviation="2"/>
<feComposite in2="hardAlpha" operator="out"/>
<feColorMatrix type="matrix" values="0 0 0 0 0 0 0 0 0 0 0 0 0 0 0 0 0 0 0.25 0"/>
<feBlend mode="normal" in2="BackgroundImageFix" result="effect1_dropShadow_1_104"/>
<feBlend mode="normal" in="SourceGraphic" in2="effect1_dropShadow_1_104" result="shape"/>
</filter>
</defs>
</svg>
